<svg width="36" height="36" viewBox="0 0 36 36" fill="none" xmlns="http://www.w3.org/2000/svg">
<path d="M33.3001 9.6C33.4658 9.6 33.6001 9.46569 33.6001 9.3V8.4C33.6001 7.074 32.5261 6 31.2001 6H4.80015C3.47415 6 2.40015 7.074 2.40015 8.4V9.3C2.40015 9.46569 2.53446 9.6 2.70015 9.6H33.3001Z" fill="#A6D076"/>
<path d="M2.70015 13.2C2.53446 13.2 2.40015 13.3343 2.40015 13.5V27.6C2.40015 28.926 3.47415 30 4.80015 30H31.2001C32.5261 30 33.6001 28.926 33.6001 27.6V13.5C33.6001 13.3343 33.4658 13.2 33.3001 13.2H2.70015ZM15.6001 16.5C15.6001 16.6656 15.4658 16.8 15.3001 16.8H6.30015C6.13446 16.8 6.00015 16.6656 6.00015 16.5V15.9C6.00015 15.7343 6.13446 15.6 6.30015 15.6H15.3001C15.4658 15.6 15.6001 15.7343 15.6001 15.9V16.5Z" fill="#A6D076"/>
</svg>
