<svg width="36" height="36" viewBox="0 0 36 36" fill="none" xmlns="http://www.w3.org/2000/svg">
<path d="M8.1 27.45L6 15L13.5 18L18 9L22.5 18L30 15L27.9 27.45C27.6 28.95 26.4 30 24.9 30H10.95C9.6 30 8.25 28.95 8.1 27.45Z" fill="#8BC34A" fill-opacity="0.75"/>
<path d="M18 12C19.6569 12 21 10.6569 21 9C21 7.34315 19.6569 6 18 6C16.3431 6 15 7.34315 15 9C15 10.6569 16.3431 12 18 12Z" fill="#8BC34A" fill-opacity="0.75"/>
<path d="M30 18C31.6569 18 33 16.6569 33 15C33 13.3431 31.6569 12 30 12C28.3431 12 27 13.3431 27 15C27 16.6569 28.3431 18 30 18Z" fill="#8BC34A" fill-opacity="0.75"/>
<path d="M6 18C7.65685 18 9 16.6569 9 15C9 13.3431 7.65685 12 6 12C4.34315 12 3 13.3431 3 15C3 16.6569 4.34315 18 6 18Z" fill="#8BC34A" fill-opacity="0.75"/>
</svg>
