<svg width="52" height="52" viewBox="0 0 52 52" fill="none" xmlns="http://www.w3.org/2000/svg">
<rect width="52" height="52" rx="4" fill="#8BC34A" fill-opacity="0.87"/>
<path d="M34.6869 15.1698H29.6981V13.5849C29.6981 12.7111 28.987 12 28.1132 12H23.8868C23.013 12 22.3019 12.7111 22.3019 13.5849V15.1698H17.3131C16.2771 15.1698 15.434 16.013 15.434 17.049V19.3962H16.4906H35.5094H36.566V17.049C36.566 16.013 35.7229 15.1698 34.6869 15.1698ZM28.6415 15.1698H23.3585V13.5849C23.3585 13.2933 23.5957 13.0566 23.8868 13.0566H28.1132C28.4043 13.0566 28.6415 13.2933 28.6415 13.5849V15.1698Z" fill="white"/>
<path d="M16.4906 38.03C16.4906 39.1162 17.3744 40 18.4606 40H33.5389C34.6256 40 35.5089 39.1162 35.5089 38.03V20.4529H16.4901V38.03H16.4906Z" fill="white"/>
</svg>
