<svg width="36" height="36" viewBox="0 0 36 36" fill="none" xmlns="http://www.w3.org/2000/svg">
<path d="M12.4885 16.3744C12.4837 17.5133 12.4885 18.6521 12.4933 19.7909C14.4026 19.8531 16.3165 19.8243 18.2257 19.8531C17.3836 24.0878 11.6225 25.4611 8.57445 22.6954C5.44025 20.2694 5.58858 14.9485 8.84718 12.6948C11.1248 10.8765 14.3643 11.3263 16.6419 12.9005C17.5367 12.0728 18.374 11.1875 19.1827 10.2688C17.2878 8.75676 14.9624 7.68013 12.4885 7.795C7.32555 7.62272 2.57883 12.1445 2.49273 17.3075C2.16253 21.5278 4.93784 25.6669 8.85677 27.1598C12.7613 28.6623 17.7664 27.6383 20.2594 24.1309C21.9054 21.9154 22.2595 19.0636 22.0681 16.384C18.8717 16.3601 15.6801 16.3648 12.4885 16.3744Z" fill="white"/>
<path d="M31.1594 16.3601C31.1498 15.4078 31.1451 14.4508 31.1403 13.4986C30.1881 13.4986 29.2407 13.4986 28.2933 13.4986C28.2837 14.4509 28.2741 15.4031 28.2693 16.3601C27.3123 16.3648 26.3601 16.3696 25.4079 16.3792C25.4079 17.3314 25.4079 18.2788 25.4079 19.2263C26.3601 19.2359 27.3171 19.2455 28.2693 19.255C28.2789 20.2072 28.2789 21.1594 28.2885 22.1116C29.2407 22.1116 30.1881 22.1116 31.1403 22.1116C31.1451 21.1594 31.1498 20.2072 31.1594 19.2502C32.1164 19.2406 33.0687 19.2359 34.0208 19.2263C34.0208 18.2788 34.0208 17.3266 34.0208 16.3792C33.0687 16.3696 32.1117 16.3696 31.1594 16.3601Z" fill="white"/>
</svg>
