<svg width="16" height="18" viewBox="0 0 16 18" fill="none" xmlns="http://www.w3.org/2000/svg">
<path fill-rule="evenodd" clip-rule="evenodd" d="M3.27553 5.00245V7.54633H2.18529C1.38213 7.54633 0.731567 8.19685 0.731567 9.00001V16.2684C0.731567 17.0716 1.38213 17.722 2.18529 17.722H13.8146C14.6178 17.722 15.2684 17.0716 15.2684 16.2684V9.00001C15.2684 8.19685 14.6178 7.54633 13.8146 7.54633H12.7245V5.00245C12.7245 2.39317 10.6092 0.278015 8.00001 0.278015C5.39081 0.278015 3.27553 2.39313 3.27553 5.00245ZM5.09265 7.54633V5.00245C5.09265 3.39617 6.39365 2.09505 7.99997 2.09505C9.60629 2.09505 10.9074 3.39617 10.9074 5.00245V7.54633H5.09265ZM6.54629 11.544C6.54629 10.7408 7.19681 10.0903 7.99997 10.0903C8.80313 10.0903 9.45361 10.7408 9.45361 11.544C9.45361 12.0564 9.18825 12.5071 8.78861 12.7651C8.78861 12.7651 8.93061 13.623 9.09029 14.6331C9.09029 14.9346 8.84681 15.1781 8.54513 15.1781H7.45481C7.15317 15.1781 6.90973 14.9346 6.90973 14.6331L7.21141 12.7651C6.81173 12.5071 6.54629 12.0564 6.54629 11.544Z" fill="#8BC34A" fill-opacity="0.7"/>
</svg>
