<svg width="20" height="20" viewBox="0 0 20 20" fill="none" xmlns="http://www.w3.org/2000/svg">
<path d="M17.8572 13.8393C17.8572 14.0402 17.82 14.3024 17.7456 14.6261C17.6712 14.9498 17.593 15.2046 17.5112 15.3906C17.3549 15.7626 16.9011 16.157 16.1496 16.5736C15.4502 16.9531 14.7582 17.1428 14.0737 17.1428C13.8728 17.1428 13.6775 17.1298 13.4878 17.1038C13.298 17.0777 13.0841 17.0312 12.846 16.9643C12.6079 16.8973 12.4312 16.8434 12.3159 16.8024C12.2005 16.7615 11.9941 16.6853 11.6965 16.5736C11.3988 16.462 11.2165 16.3951 11.1496 16.3728C10.4204 16.1123 9.76937 15.8036 9.19646 15.4464C8.24407 14.8586 7.26007 14.0569 6.24445 13.0413C5.22882 12.0257 4.42711 11.0417 3.83931 10.0893C3.48217 9.51636 3.17339 8.86531 2.91297 8.13615C2.89065 8.06918 2.82369 7.88689 2.71208 7.58927C2.60047 7.29165 2.52421 7.08518 2.48329 6.96985C2.44236 6.85453 2.38842 6.67781 2.32145 6.43972C2.25449 6.20162 2.20799 5.98771 2.18195 5.79798C2.1559 5.60825 2.14288 5.41293 2.14288 5.21204C2.14288 4.52752 2.33262 3.83555 2.71208 3.13615C3.12875 2.38466 3.52309 1.93079 3.89512 1.77454C4.08113 1.6927 4.33596 1.61457 4.65962 1.54017C4.98329 1.46576 5.24556 1.42856 5.44646 1.42856C5.55062 1.42856 5.62875 1.43972 5.68083 1.46204C5.81476 1.50668 6.01193 1.78942 6.27235 2.31025C6.35419 2.45162 6.4658 2.65252 6.60717 2.91293C6.74854 3.17335 6.87875 3.40958 6.99779 3.62164C7.11684 3.83369 7.23217 4.03272 7.34378 4.21874C7.3661 4.2485 7.4312 4.3415 7.53909 4.49775C7.64698 4.654 7.72696 4.78607 7.77904 4.89396C7.83113 5.00185 7.85717 5.10787 7.85717 5.21204C7.85717 5.36085 7.75114 5.54686 7.53909 5.77008C7.32704 5.99329 7.09638 6.1979 6.84713 6.38392C6.59787 6.56993 6.36721 6.7671 6.15516 6.97543C5.94311 7.18377 5.83708 7.3549 5.83708 7.48883C5.83708 7.55579 5.85568 7.6395 5.89288 7.73994C5.93009 7.84039 5.96171 7.91665 5.98775 7.96874C6.01379 8.02082 6.06587 8.11011 6.144 8.23659C6.22212 8.36308 6.26491 8.43377 6.27235 8.44865C6.83782 9.46799 7.48515 10.3422 8.21431 11.0714C8.94348 11.8006 9.81774 12.4479 10.8371 13.0134C10.852 13.0208 10.9226 13.0636 11.0491 13.1417C11.1756 13.2199 11.2649 13.2719 11.317 13.298C11.3691 13.324 11.4453 13.3556 11.5458 13.3928C11.6462 13.43 11.7299 13.4486 11.7969 13.4486C11.9308 13.4486 12.102 13.3426 12.3103 13.1306C12.5186 12.9185 12.7158 12.6879 12.9018 12.4386C13.0878 12.1893 13.2924 11.9587 13.5157 11.7466C13.7389 11.5346 13.9249 11.4286 14.0737 11.4286C14.1779 11.4286 14.2839 11.4546 14.3918 11.5067C14.4997 11.5588 14.6317 11.6388 14.788 11.7466C14.9442 11.8545 15.0372 11.9196 15.067 11.942C15.253 12.0536 15.452 12.1689 15.6641 12.2879C15.8761 12.407 16.1124 12.5372 16.3728 12.6786C16.6332 12.8199 16.8341 12.9315 16.9755 13.0134C17.4963 13.2738 17.779 13.471 17.8237 13.6049C17.846 13.657 17.8572 13.7351 17.8572 13.8393Z" fill="#ACD37E"/>
</svg>
