<svg width="84" height="84" viewBox="0 0 84 84" fill="none" xmlns="http://www.w3.org/2000/svg">
<path d="M42 0C18.7091 0 0 18.7091 0 42C0 65.2909 18.7091 84 42 84C65.2909 84 84 65.2909 84 42C84 18.7091 65.2909 0 42 0ZM66.2455 28.8273L35.7 60.5182C35.3182 60.9 34.9364 61.0909 34.3636 61.0909C33.7909 61.0909 33.2182 60.9 33.0273 60.5182L18.1364 44.4818L17.7545 44.1C17.3727 43.7182 17.1818 43.1455 17.1818 42.7636C17.1818 42.3818 17.3727 41.8091 17.7545 41.4273L20.4273 38.7545C21.1909 37.9909 22.3364 37.9909 23.1 38.7545L23.2909 38.9455L33.7909 50.2091C34.1727 50.5909 34.7455 50.5909 35.1273 50.2091L60.7091 23.6727H60.9C61.6636 22.9091 62.8091 22.9091 63.5727 23.6727L66.2455 26.3455C67.0091 26.9182 67.0091 28.0636 66.2455 28.8273Z" fill="#8BC34A" fill-opacity="0.7"/>
</svg>
