<svg width="36" height="36" viewBox="0 0 36 36" fill="none" xmlns="http://www.w3.org/2000/svg">
<path d="M15 3.75C14.5845 3.75 14.25 4.08452 14.25 4.49999V6.74999H8.25C7.419 6.74999 6.75 7.41898 6.75 8.25C6.75 9.08099 7.419 9.74999 8.25 9.74999H27.75C28.581 9.74999 29.25 9.08099 29.25 8.25C29.25 7.41898 28.581 6.74999 27.75 6.74999H21.75V4.49999C21.75 4.08452 21.4155 3.75 21 3.75H15ZM15.75 5.24999H20.25V6.74999H15.75V5.24999ZM8.25 11.25C7.419 11.25 6.63679 11.9304 6.77344 12.75L9.75 30.75C9.8856 31.5697 10.419 32.25 11.25 32.25H24.75C25.581 32.25 26.1133 31.5696 26.25 30.75L29.2266 12.75C29.3622 11.9302 28.581 11.25 27.75 11.25H8.25Z" fill="#8BC34A" fill-opacity="0.75"/>
</svg>
